# xmcd CD database file
#
# Track frame offsets:
#	150
#	14012
#	32737
#	53381
#	62891
#	80073
#	92936
#	110430
#	122993
#	138075
#	159078
#	177382
#	209322
#	220588
#	234060
#	250733
#
# Disc length: 3673 seconds
#
# Revision: 0
# Processed by: cddbd v1.5PL3 Copyright (c) Steve Scherf et al.
# Submitted via: CDex 1.50beta10
#
DISCID=d10e5710
DTITLE=RUBIN STEINER - Lo-fi nu jazz vol. 2
DYEAR=2003
DGENRE=Jazz
TTITLE0=Lo-fi nu jazz #6
TTITLE1=Lo-fi nu jazz #13
TTITLE2=Fresh casino
TTITLE3=Lo-fi nu jazz #5
TTITLE4=Soul music
TTITLE5=Lo-fi nu jazz #8
TTITLE6=Easy tune
TTITLE7=Bild Einz
TTITLE8=Lo-fi nu jazz #12
TTITLE9=Lo-fi nu jazz #11
TTITLE10=Home disc karaoke
TTITLE11=No rest for boulez republic
TTITLE12=Rubin Steiner plays jazz
TTITLE13=Tango Part 2
TTITLE14=Lo-fi nu jazz #6 (Kubota Takesi remix)
TTITLE15=Lo-fi nu jazz #6 (Hush Little remix)
EXTD=YEAR: 2003
EXTT0=
EXTT1=
EXTT2=
EXTT3=
EXTT4=
EXTT5=
EXTT6=
EXTT7=
EXTT8=
EXTT9=
EXTT10=
EXTT11=
EXTT12=
EXTT13=
EXTT14=
EXTT15=
PLAYORDER=
